<svg xmlns:xlink="http://www.w3.org/1999/xlink" xmlns="http://www.w3.org/2000/svg" class="cgfx__sensor-force" viewBox="-36.000003814697266 -136.9961395263672 72 241.2461395263672"><path class="cgfx__selected" fill='none' stroke='#3b8ed7' stroke-linecap='round' stroke-linejoin='round' display='none' stroke-width='3' d="M-15,85v-153.27a36,36 0 1 1 30,0v153.27z"/><path d="M-8,-65v-7.79a29.5,29.5 0 1 1 16,0v7.79z" fill="#4C4C4E"/><path d="M-8,-65v-7.79a29.32,29.32 0 1 1 16,0v7.79h7v-3.27a36,36 0 1 0 -30,0v3.27z" fill="#2C2C2E"/><path d="M-8,85v-157.79a29.32,29.32 0 0 1 2,-56.92v1.96a27.41,27.41 0 0 0 4,54.07v158.68z" fill="#BFBFBF"/><path d="M8,85v-157.79a29.32,29.32 0 0 0 -2,-56.92v1.96a27.41,27.41 0 0 1 -4,54.07v158.68z" fill="#BFBFBF"/><path d="M-15,-36v-2h3v2zM15,-36v-2h-3v2z" fill="#BFBFBF"/><g fill="none" stroke="#BFBFBF" stroke-width="1" stroke-linecap="round"><path d="M-13.5,-126h17.1"/><path d="M13.5,-76h-17.1"/><path d="M-19.1,-122h32"/><path d="M19.1,-80h-32"/><path d="M-22.8,-118h40.6"/><path d="M22.8,-84h-40.6"/><path d="M-25.3,-114h46.2"/><path d="M25.3,-88h-46.2"/><path d="M-26.9,-110h49.8"/><path d="M26.9,-92h-49.8"/><path d="M-28,-106h52.1"/><path d="M28,-96h-52.1"/><path d="M-28.4,-102h53"/><path d="M28.4,-100h-53"/><path d="M-28.3,-98h52.7"/><path d="M28.3,-104h-52.7"/><path d="M-27.5,-94h51.1"/><path d="M27.5,-108h-51.1"/><path d="M-26.2,-90h48.2"/><path d="M26.2,-112h-48.2"/><path d="M-24.1,-86h43.6"/><path d="M24.1,-116h-43.6"/><path d="M-21.1,-82h36.6"/><path d="M21.1,-120h-36.6"/><path d="M-16.67,-78h25.4"/><path d="M16.67,-124h-25.4"/></g><path d="M-15,60v-128.27a36,36 0 1 1 30,0v128.27z" fill="#90C8B8" stroke="none" opacity=".15"/><path d="M-15,60v-125h30v125z" fill="#90C8B8" stroke="none" opacity=".5"/><path d="M-15,85v-25h30v25z" fill="#808080" stroke="none" opacity=".15"/><path d="M-6.25,104.25v-14a2.78,2.78 0 0 0 -2,-2.67a.34,.34 0 0 1 -.25,-.33v-23l1,-1h5l1,1v23a.34,.34 0 0 1 -.25,.33a2.78,2.78 0 0 0 -2,2.67v14zM-6.5,81.75v-4h3v4zM-6.5,72.25v-4h3v4z" fill="#8C8C8C" fill-rule="evenodd"/><path d="M3.75,104.25v-14a2.78,2.78 0 0 0 -2,-2.67a.34,.34 0 0 1 -.25,-.33v-23l1,-1h5l1,1v23a.34,.34 0 0 1 -.25,.33a2.78,2.78 0 0 0 -2,2.67v14zM3.5,81.75v-4h3v4zM3.5,72.25v-4h3v4z" fill="#8C8C8C" fill-rule="evenodd"/><g class="cgfx__force cgfx__inspector cgfx__slider" transform="translate(0, -42) rotate(0)" display="none"><g transform="translate(-11,-70)"><rect class="cgfx__bounds" width="22" height="140" rx="11" fill="#F4F5F6" stroke="#2E4258" stroke-width="2"/><rect class="cgfx__fill" x="1" y="1" width="20" height="138" rx="10" fill="#0696D7"/><rect class="cgfx__fillborder" opacity="0.3" x="1.5" y="1.5" width="19" height="137" rx="9.5" fill="none" stroke="#F4F5F6"/><circle class="cgfx__knob" cx="11" cy="11" r="8" fill="white" stroke="#2E4258" stroke-width="2"/><g class="cgfx__hitarea-interaction cgfx__force cgfx__inspector" style='fill:#ff0000;' opacity='0' display='none'><rect class="cgfx__bounds" width="22" height="140" rx="11"/><circle class="cgfx__reference_point_1" cx="11" cy="11" r=".01" opacity="0"/><circle class="cgfx__reference_point_2" cx="11" cy="129" r=".01" opacity="0"/></g></g></g><g class="cgfx__inspector cgfx__force_label" transform="translate(0,50)" display="none"><g class="cgfx__norotate"><rect x="-9.23" y="-10.06" width="18.47" height="18.47" rx="9.23" fill="#ffffff" opacity=".8"/><text fill="#000000" style="dominant-baseline:middle;text-anchor:middle;font-size:11px">0</text></g></g><path class="cgfx__hitarea cgfx__body" style='fill:#ff0000;' opacity='0' display='none' d="M-15,85v-153.27a36,36 0 1 1 30,0v153.27z"/><path class="cgfx__hitarea" style='fill:#ff0000;' opacity='0' display='none' d="M-6.25,104.25v-14a2.78,2.78 0 0 0 -2,-2.67a.34,.34 0 0 1 -.25,-.33v-23l1,-1h5l1,1v23a.34,.34 0 0 1 -.25,.33a2.78,2.78 0 0 0 -2,2.67v14zM-6.5,81.75v-4h3v4zM-6.5,72.25v-4h3v4z"/><path class="cgfx__hitarea" style='fill:#ff0000;' opacity='0' display='none' d="M3.75,104.25v-14a2.78,2.78 0 0 0 -2,-2.67a.34,.34 0 0 1 -.25,-.33v-23l1,-1h5l1,1v23a.34,.34 0 0 1 -.25,.33a2.78,2.78 0 0 0 -2,2.67v14zM3.5,81.75v-4h3v4zM3.5,72.25v-4h3v4z"/><g class="cgfx__terminal"><desc class="cgfx__terminalname">1</desc><desc class="cgfx__terminaltype">breadboard</desc><line class="cgfx__origin cgfx__direction cgfx__reference cgfx__debug" x1="-5" y1="103" x2="-5" y2="128" stroke-dasharray="10,2,3,2,3,2,3" style="stroke:rgb(255,0,0);stroke-width:2;opacity:0.5" display="none"/></g><g class="cgfx__terminal"><desc class="cgfx__terminalname">2</desc><desc class="cgfx__terminaltype">breadboard</desc><line class="cgfx__origin cgfx__direction cgfx__reference cgfx__debug" x1="5" y1="103" x2="5" y2="128" stroke-dasharray="10,2,3,2,3,2,3" style="stroke:rgb(255,0,0);stroke-width:2;opacity:0.5" display="none"/></g></svg>