<svg xmlns:xlink="http://www.w3.org/1999/xlink" xmlns="http://www.w3.org/2000/svg" class="cgfx__timer-555" viewBox="-21 -16 42 32"><rect class="cgfx__selected" display="none" fill='none' stroke='#3b8ed7' stroke-width='2' stroke-miterlimit='10' stroke-linecap='round' stroke-linejoin='round' x="-6" y="4" transform="translate(-15,-15)" width="42" height="22" rx="2" ry="2"/><rect x="-6" y="4" transform="translate(-15,-15)" fill="#333333" width="42" height="22" rx="2" ry="2"/><rect class="cgfx__hitarea" style='fill:#ff0000;' opacity='0' display='none' x="-6" y="4" transform="translate(-15,-15)" width="42" height="22" rx="2" ry="2"/><circle fill="#DDDDDD" cx="-15" cy="7.5" r="1.5"/><path transform="translate(-21,0) scale(7)" fill="#191919" d="M0-0.5c0.275,0,0.5,0.225,0.5,0.5S0.275,0.5,0,0.5V-0.5z"/><path fill="#8C8C8C" transform="translate(-15,15) rotate(90)" d="M-1.5,1.906C-1.402,1.099-0.466,1.007-0.129,1H0c0.552,0,1-0.448,1-1S0.552-1,0-1h-0.129C-0.466-1.007-1.402-1.099-1.5-1.906c-0.069-0.573-0.45-1-1-1c-0.55,0-1,0-1,0v5.813c0,0,0.45,0,1,0C-1.95,2.906-1.569,2.48-1.5,1.906z"/><path class="cgfx__selected" display="none" style='fill:#3b8ed7;stroke:none;stroke-linejoin=round;stroke-miterlimit:10;' transform="translate(-15,15) rotate(90)" d="M-1.5,1.906C-1.402,1.099-0.466,1.007-0.129,1H0c0.552,0,1-0.448,1-1S0.552-1,0-1h-0.129C-0.466-1.007-1.402-1.099-1.5-1.906c-0.069-0.573-0.45-1-1-1c-0.55,0-1,0-1,0v5.813c0,0,0.45,0,1,0C-1.95,2.906-1.569,2.48-1.5,1.906z"/><path class="cgfx__hitarea" style='fill:#ff0000;' opacity='0' display='none' transform="translate(-15,15) rotate(90)" d="M-1.5,1.906C-1.402,1.099-0.466,1.007-0.129,1H0c0.552,0,1-0.448,1-1S0.552-1,0-1h-0.129C-0.466-1.007-1.402-1.099-1.5-1.906c-0.069-0.573-0.45-1-1-1c-0.55,0-1,0-1,0v5.813c0,0,0.45,0,1,0C-1.95,2.906-1.569,2.48-1.5,1.906z"/><path fill="#8C8C8C" transform="translate(-5,15) rotate(90)" d="M-1.5,1.906C-1.402,1.099-0.466,1.007-0.129,1H0c0.552,0,1-0.448,1-1S0.552-1,0-1h-0.129C-0.466-1.007-1.402-1.099-1.5-1.906c-0.069-0.573-0.45-1-1-1c-0.55,0-1,0-1,0v5.813c0,0,0.45,0,1,0C-1.95,2.906-1.569,2.48-1.5,1.906z"/><path class="cgfx__selected" display="none" style='fill:#3b8ed7;stroke:none;stroke-linejoin=round;stroke-miterlimit:10;' transform="translate(-5,15) rotate(90)" d="M-1.5,1.906C-1.402,1.099-0.466,1.007-0.129,1H0c0.552,0,1-0.448,1-1S0.552-1,0-1h-0.129C-0.466-1.007-1.402-1.099-1.5-1.906c-0.069-0.573-0.45-1-1-1c-0.55,0-1,0-1,0v5.813c0,0,0.45,0,1,0C-1.95,2.906-1.569,2.48-1.5,1.906z"/><path class="cgfx__hitarea" style='fill:#ff0000;' opacity='0' display='none' transform="translate(-5,15) rotate(90)" d="M-1.5,1.906C-1.402,1.099-0.466,1.007-0.129,1H0c0.552,0,1-0.448,1-1S0.552-1,0-1h-0.129C-0.466-1.007-1.402-1.099-1.5-1.906c-0.069-0.573-0.45-1-1-1c-0.55,0-1,0-1,0v5.813c0,0,0.45,0,1,0C-1.95,2.906-1.569,2.48-1.5,1.906z"/><path fill="#8C8C8C" transform="translate(5,15) rotate(90)" d="M-1.5,1.906C-1.402,1.099-0.466,1.007-0.129,1H0c0.552,0,1-0.448,1-1S0.552-1,0-1h-0.129C-0.466-1.007-1.402-1.099-1.5-1.906c-0.069-0.573-0.45-1-1-1c-0.55,0-1,0-1,0v5.813c0,0,0.45,0,1,0C-1.95,2.906-1.569,2.48-1.5,1.906z"/><path class="cgfx__selected" display="none" style='fill:#3b8ed7;stroke:none;stroke-linejoin=round;stroke-miterlimit:10;' transform="translate(5,15) rotate(90)" d="M-1.5,1.906C-1.402,1.099-0.466,1.007-0.129,1H0c0.552,0,1-0.448,1-1S0.552-1,0-1h-0.129C-0.466-1.007-1.402-1.099-1.5-1.906c-0.069-0.573-0.45-1-1-1c-0.55,0-1,0-1,0v5.813c0,0,0.45,0,1,0C-1.95,2.906-1.569,2.48-1.5,1.906z"/><path class="cgfx__hitarea" style='fill:#ff0000;' opacity='0' display='none' transform="translate(5,15) rotate(90)" d="M-1.5,1.906C-1.402,1.099-0.466,1.007-0.129,1H0c0.552,0,1-0.448,1-1S0.552-1,0-1h-0.129C-0.466-1.007-1.402-1.099-1.5-1.906c-0.069-0.573-0.45-1-1-1c-0.55,0-1,0-1,0v5.813c0,0,0.45,0,1,0C-1.95,2.906-1.569,2.48-1.5,1.906z"/><path fill="#8C8C8C" transform="translate(15,15) rotate(90)" d="M-1.5,1.906C-1.402,1.099-0.466,1.007-0.129,1H0c0.552,0,1-0.448,1-1S0.552-1,0-1h-0.129C-0.466-1.007-1.402-1.099-1.5-1.906c-0.069-0.573-0.45-1-1-1c-0.55,0-1,0-1,0v5.813c0,0,0.45,0,1,0C-1.95,2.906-1.569,2.48-1.5,1.906z"/><path class="cgfx__selected" display="none" style='fill:#3b8ed7;stroke:none;stroke-linejoin=round;stroke-miterlimit:10;' transform="translate(15,15) rotate(90)" d="M-1.5,1.906C-1.402,1.099-0.466,1.007-0.129,1H0c0.552,0,1-0.448,1-1S0.552-1,0-1h-0.129C-0.466-1.007-1.402-1.099-1.5-1.906c-0.069-0.573-0.45-1-1-1c-0.55,0-1,0-1,0v5.813c0,0,0.45,0,1,0C-1.95,2.906-1.569,2.48-1.5,1.906z"/><path class="cgfx__hitarea" style='fill:#ff0000;' opacity='0' display='none' transform="translate(15,15) rotate(90)" d="M-1.5,1.906C-1.402,1.099-0.466,1.007-0.129,1H0c0.552,0,1-0.448,1-1S0.552-1,0-1h-0.129C-0.466-1.007-1.402-1.099-1.5-1.906c-0.069-0.573-0.45-1-1-1c-0.55,0-1,0-1,0v5.813c0,0,0.45,0,1,0C-1.95,2.906-1.569,2.48-1.5,1.906z"/><path fill="#8C8C8C" transform="translate(15,-15) rotate(-90)" d="M-1.5,1.906C-1.402,1.099-0.466,1.007-0.129,1H0c0.552,0,1-0.448,1-1S0.552-1,0-1h-0.129C-0.466-1.007-1.402-1.099-1.5-1.906c-0.069-0.573-0.45-1-1-1c-0.55,0-1,0-1,0v5.813c0,0,0.45,0,1,0C-1.95,2.906-1.569,2.48-1.5,1.906z"/><path class="cgfx__selected" display="none" style='fill:#3b8ed7;stroke:none;stroke-linejoin=round;stroke-miterlimit:10;' transform="translate(15,-15) rotate(-90)" d="M-1.5,1.906C-1.402,1.099-0.466,1.007-0.129,1H0c0.552,0,1-0.448,1-1S0.552-1,0-1h-0.129C-0.466-1.007-1.402-1.099-1.5-1.906c-0.069-0.573-0.45-1-1-1c-0.55,0-1,0-1,0v5.813c0,0,0.45,0,1,0C-1.95,2.906-1.569,2.48-1.5,1.906z"/><path class="cgfx__hitarea" style='fill:#ff0000;' opacity='0' display='none' transform="translate(15,-15) rotate(-90)" d="M-1.5,1.906C-1.402,1.099-0.466,1.007-0.129,1H0c0.552,0,1-0.448,1-1S0.552-1,0-1h-0.129C-0.466-1.007-1.402-1.099-1.5-1.906c-0.069-0.573-0.45-1-1-1c-0.55,0-1,0-1,0v5.813c0,0,0.45,0,1,0C-1.95,2.906-1.569,2.48-1.5,1.906z"/><path fill="#8C8C8C" transform="translate(5,-15) rotate(-90)" d="M-1.5,1.906C-1.402,1.099-0.466,1.007-0.129,1H0c0.552,0,1-0.448,1-1S0.552-1,0-1h-0.129C-0.466-1.007-1.402-1.099-1.5-1.906c-0.069-0.573-0.45-1-1-1c-0.55,0-1,0-1,0v5.813c0,0,0.45,0,1,0C-1.95,2.906-1.569,2.48-1.5,1.906z"/><path class="cgfx__selected" display="none" style='fill:#3b8ed7;stroke:none;stroke-linejoin=round;stroke-miterlimit:10;' transform="translate(5,-15) rotate(-90)" d="M-1.5,1.906C-1.402,1.099-0.466,1.007-0.129,1H0c0.552,0,1-0.448,1-1S0.552-1,0-1h-0.129C-0.466-1.007-1.402-1.099-1.5-1.906c-0.069-0.573-0.45-1-1-1c-0.55,0-1,0-1,0v5.813c0,0,0.45,0,1,0C-1.95,2.906-1.569,2.48-1.5,1.906z"/><path class="cgfx__hitarea" style='fill:#ff0000;' opacity='0' display='none' transform="translate(5,-15) rotate(-90)" d="M-1.5,1.906C-1.402,1.099-0.466,1.007-0.129,1H0c0.552,0,1-0.448,1-1S0.552-1,0-1h-0.129C-0.466-1.007-1.402-1.099-1.5-1.906c-0.069-0.573-0.45-1-1-1c-0.55,0-1,0-1,0v5.813c0,0,0.45,0,1,0C-1.95,2.906-1.569,2.48-1.5,1.906z"/><path fill="#8C8C8C" transform="translate(-5,-15) rotate(-90)" d="M-1.5,1.906C-1.402,1.099-0.466,1.007-0.129,1H0c0.552,0,1-0.448,1-1S0.552-1,0-1h-0.129C-0.466-1.007-1.402-1.099-1.5-1.906c-0.069-0.573-0.45-1-1-1c-0.55,0-1,0-1,0v5.813c0,0,0.45,0,1,0C-1.95,2.906-1.569,2.48-1.5,1.906z"/><path class="cgfx__selected" display="none" style='fill:#3b8ed7;stroke:none;stroke-linejoin=round;stroke-miterlimit:10;' transform="translate(-5,-15) rotate(-90)" d="M-1.5,1.906C-1.402,1.099-0.466,1.007-0.129,1H0c0.552,0,1-0.448,1-1S0.552-1,0-1h-0.129C-0.466-1.007-1.402-1.099-1.5-1.906c-0.069-0.573-0.45-1-1-1c-0.55,0-1,0-1,0v5.813c0,0,0.45,0,1,0C-1.95,2.906-1.569,2.48-1.5,1.906z"/><path class="cgfx__hitarea" style='fill:#ff0000;' opacity='0' display='none' transform="translate(-5,-15) rotate(-90)" d="M-1.5,1.906C-1.402,1.099-0.466,1.007-0.129,1H0c0.552,0,1-0.448,1-1S0.552-1,0-1h-0.129C-0.466-1.007-1.402-1.099-1.5-1.906c-0.069-0.573-0.45-1-1-1c-0.55,0-1,0-1,0v5.813c0,0,0.45,0,1,0C-1.95,2.906-1.569,2.48-1.5,1.906z"/><path fill="#8C8C8C" transform="translate(-15,-15) rotate(-90)" d="M-1.5,1.906C-1.402,1.099-0.466,1.007-0.129,1H0c0.552,0,1-0.448,1-1S0.552-1,0-1h-0.129C-0.466-1.007-1.402-1.099-1.5-1.906c-0.069-0.573-0.45-1-1-1c-0.55,0-1,0-1,0v5.813c0,0,0.45,0,1,0C-1.95,2.906-1.569,2.48-1.5,1.906z"/><path class="cgfx__selected" display="none" style='fill:#3b8ed7;stroke:none;stroke-linejoin=round;stroke-miterlimit:10;' transform="translate(-15,-15) rotate(-90)" d="M-1.5,1.906C-1.402,1.099-0.466,1.007-0.129,1H0c0.552,0,1-0.448,1-1S0.552-1,0-1h-0.129C-0.466-1.007-1.402-1.099-1.5-1.906c-0.069-0.573-0.45-1-1-1c-0.55,0-1,0-1,0v5.813c0,0,0.45,0,1,0C-1.95,2.906-1.569,2.48-1.5,1.906z"/><path class="cgfx__hitarea" style='fill:#ff0000;' opacity='0' display='none' transform="translate(-15,-15) rotate(-90)" d="M-1.5,1.906C-1.402,1.099-0.466,1.007-0.129,1H0c0.552,0,1-0.448,1-1S0.552-1,0-1h-0.129C-0.466-1.007-1.402-1.099-1.5-1.906c-0.069-0.573-0.45-1-1-1c-0.55,0-1,0-1,0v5.813c0,0,0.45,0,1,0C-1.95,2.906-1.569,2.48-1.5,1.906z"/><path style="fill:#E3E3E3;" d="M-2.83,0.51c0,1.06-0.86,1.93-1.93,1.93c-0.58,0-1.08-0.12-1.54-0.34c-0.17-0.08-0.26-0.23-0.26-0.4c0-0.24,0.2-0.44,0.46-0.44c0.07,0,0.15,0.03,0.22,0.06C-5.55,1.5-5.2,1.58-4.76,1.58c0.55,0,0.99-0.52,0.99-1.07v-0.3c0-0.55-0.44-1.07-0.99-1.07c-0.32,0-0.66,0.08-0.95,0.23c-0.07,0.04-0.16,0.06-0.24,0.06c-0.29,0-0.52-0.23-0.52-0.52v-2.3c0-0.32,0.26-0.58,0.58-0.58h2.44c0.24,0,0.44,0.2,0.44,0.44c0,0.23-0.19,0.44-0.44,0.44h-2.09v1.48c0.25-0.07,0.52-0.11,0.78-0.11c1.06,0,1.93,0.86,1.93,1.93V0.51z"/><path style="fill:#E3E3E3;" d="M1.86,0.51c0,1.06-0.86,1.93-1.93,1.93c-0.58,0-1.08-0.12-1.54-0.34c-0.17-0.08-0.26-0.23-0.26-0.4c0-0.24,0.2-0.44,0.46-0.44c0.07,0,0.15,0.03,0.22,0.06C-0.85,1.5-0.5,1.58-0.06,1.58c0.55,0,0.99-0.52,0.99-1.07v-0.3c0-0.55-0.44-1.07-0.99-1.07c-0.32,0-0.66,0.08-0.95,0.23c-0.07,0.04-0.16,0.06-0.24,0.06c-0.29,0-0.52-0.23-0.52-0.52v-2.3c0-0.32,0.26-0.58,0.58-0.58h2.44c0.24,0,0.44,0.2,0.44,0.44c0,0.23-0.19,0.44-0.44,0.44h-2.09v1.48c0.25-0.07,0.52-0.11,0.78-0.11c1.06,0,1.93,0.86,1.93,1.93V0.51z"/><path style="fill:#E3E3E3;" d="M6.56,0.51c0,1.06-0.86,1.93-1.93,1.93c-0.58,0-1.08-0.12-1.54-0.34C2.93,2.01,2.84,1.87,2.84,1.7c0-0.24,0.2-0.44,0.46-0.44c0.07,0,0.15,0.03,0.22,0.06C3.84,1.5,4.19,1.58,4.64,1.58c0.55,0,0.99-0.52,0.99-1.07v-0.3c0-0.55-0.44-1.07-0.99-1.07c-0.32,0-0.66,0.08-0.95,0.23C3.62-0.59,3.53-0.56,3.45-0.56c-0.29,0-0.52-0.23-0.52-0.52v-2.3c0-0.32,0.26-0.58,0.58-0.58h2.44c0.24,0,0.44,0.2,0.44,0.44c0,0.23-0.19,0.44-0.44,0.44H3.85v1.48C4.1-1.68,4.37-1.71,4.64-1.71c1.06,0,1.93,0.86,1.93,1.93V0.51z"/><polygon class="cgfx__breakdown" transform="translate(0,0)rotate(0) scale(1.5,1.5)" display="none" style="opacity:0.7;fill:#FF0000;stroke:#F7E60B;stroke-miterlimit:10;" points="2.415,-5.161 7.901,-7.299 5.471,-2.294 11.953,-0.565 5.126,1.63 8.332,8.197 2.59,5.053 -0.137,10.527 -2.24,4.375 -7.565,7.957 -6.133,2.443 -11.953,0.87 -5.945,-1.796 -8.854,-7.513 -3.289,-5.371 -1.401,-10.527 "/><g class="cgfx__terminal"><desc class="cgfx__terminalname">Ground</desc><desc class="cgfx__terminaltype">breadboard</desc><line class="cgfx__origin cgfx__direction cgfx__reference cgfx__debug" x1="-15" y1="15" x2="-15" y2="40" stroke-dasharray="10,2,3,2,3,2,3" style="stroke:rgb(255,0,0);stroke-width:2;opacity:0.5" display="none"/></g><g class="cgfx__terminal"><desc class="cgfx__terminalname">Trigger</desc><desc class="cgfx__terminaltype">breadboard</desc><line class="cgfx__origin cgfx__direction cgfx__reference cgfx__debug" x1="-5" y1="15" x2="-5" y2="40" stroke-dasharray="10,2,3,2,3,2,3" style="stroke:rgb(255,0,0);stroke-width:2;opacity:0.5" display="none"/></g><g class="cgfx__terminal"><desc class="cgfx__terminalname">Output</desc><desc class="cgfx__terminaltype">breadboard</desc><line class="cgfx__origin cgfx__direction cgfx__reference cgfx__debug" x1="5" y1="15" x2="5" y2="40" stroke-dasharray="10,2,3,2,3,2,3" style="stroke:rgb(255,0,0);stroke-width:2;opacity:0.5" display="none"/></g><g class="cgfx__terminal"><desc class="cgfx__terminalname">Reset</desc><desc class="cgfx__terminaltype">breadboard</desc><line class="cgfx__origin cgfx__direction cgfx__reference cgfx__debug" x1="15" y1="15" x2="15" y2="40" stroke-dasharray="10,2,3,2,3,2,3" style="stroke:rgb(255,0,0);stroke-width:2;opacity:0.5" display="none"/></g><g class="cgfx__terminal"><desc class="cgfx__terminalname">Control Voltage</desc><desc class="cgfx__terminaltype">breadboard</desc><line class="cgfx__origin cgfx__direction cgfx__reference cgfx__debug" x1="15" y1="-15" x2="15" y2="-40" stroke-dasharray="10,2,3,2,3,2,3" style="stroke:rgb(255,0,0);stroke-width:2;opacity:0.5" display="none"/></g><g class="cgfx__terminal"><desc class="cgfx__terminalname">Threshold</desc><desc class="cgfx__terminaltype">breadboard</desc><line class="cgfx__origin cgfx__direction cgfx__reference cgfx__debug" x1="5" y1="-15" x2="5" y2="-40" stroke-dasharray="10,2,3,2,3,2,3" style="stroke:rgb(255,0,0);stroke-width:2;opacity:0.5" display="none"/></g><g class="cgfx__terminal"><desc class="cgfx__terminalname">Discharge</desc><desc class="cgfx__terminaltype">breadboard</desc><line class="cgfx__origin cgfx__direction cgfx__reference cgfx__debug" x1="-5" y1="-15" x2="-5" y2="-40" stroke-dasharray="10,2,3,2,3,2,3" style="stroke:rgb(255,0,0);stroke-width:2;opacity:0.5" display="none"/></g><g class="cgfx__terminal"><desc class="cgfx__terminalname">Vcc</desc><desc class="cgfx__terminaltype">breadboard</desc><line class="cgfx__origin cgfx__direction cgfx__reference cgfx__debug" x1="-15" y1="-15" x2="-15" y2="-40" stroke-dasharray="10,2,3,2,3,2,3" style="stroke:rgb(255,0,0);stroke-width:2;opacity:0.5" display="none"/></g></svg>