<svg xmlns:xlink="http://www.w3.org/1999/xlink" xmlns="http://www.w3.org/2000/svg" class="cgfx__diode-photo" viewBox="-17.5 -37.51000213623047 35 37.51000213623047"><g class="cgfx__wireview" transform="translate(0,-20)"><line style='fill:none;stroke:#8C8C8C;stroke-width:2;stroke-linecap:round;stroke-miterlimit:10;' x1="-5" y1="20" x2="-5" y2="15"/><line style='fill:none;stroke:#8C8C8C;stroke-width:2;stroke-linecap:round;stroke-miterlimit:10;' x1="5" y1="20" x2="5" y2="15"/><line class="cgfx__selected" display="none" fill='none' stroke='#3b8ed7' stroke-width='2' stroke-miterlimit='10' stroke-linecap='round' stroke-linejoin='round' x1="-5" y1="20" x2="-5" y2="15"/><line class="cgfx__selected" display="none" fill='none' stroke='#3b8ed7' stroke-width='2' stroke-miterlimit='10' stroke-linecap='round' stroke-linejoin='round' x1="5" y1="20" x2="5" y2="15"/><circle class="cgfx__selected" display="none" fill='#3b8ed7' stroke='#3b8ed7' stroke-width='3.5' stroke-miterlimit='10' stroke-linecap='round' stroke-linejoin='round' cx="0" cy="-0.01" r="17.5"/><circle style="fill:#B2B2B2;" cx="0" cy="-0.01" r="17.5"/><circle style='fill:#000;fill-opacity:0.2' cx="0" cy="0.99" r="15.5"/><circle style="fill:#BFBFBF;" cx="0" cy="-0.01" r="15.5"/><circle style="fill:#655E5B;" cx="0" cy="-0.01" r="10.5"/><path d="M0-9.5c5.63,0,10.21,4.43,10.48,10c0.01-0.17,0.03-0.33,0.03-0.5c0-5.8-4.7-10.5-10.5-10.5c-5.8,0-10.5,4.7-10.5,10.5c0,0.17,0.02,0.33,0.03,0.5C-10.21-5.07-5.63-9.5,0-9.5z"/><rect x="-5.5" y="-5.51" style="fill:#F9E6AF;" width="11.01" height="11.01" rx="3" ry="3"/><rect x="-4.38" y="-4.39" style="fill:#B5A5A6;" width="8.76" height="8.76" rx="2" ry="2"/><g class="cgfx__polarity-marker" transform="translate(-5,12) rotate(0)"><circle fill="none" stroke="#333334" stroke-width="0.3332" opacity=".2" cx="0" cy="0" r="2"/><circle fill="#BFBFBF" stroke="none" cx="0" cy="0" r="1.88"/><path fill="#none" stroke="#333334" stroke-width="0.4" stroke-linecap="round" d="M-1.2,0h2.4"/></g><g class="cgfx__polarity-marker" transform="translate(5,12) rotate(0)"><circle fill="none" stroke="#333334" stroke-width="0.3332" opacity=".2" cx="0" cy="0" r="2"/><circle fill="#BFBFBF" stroke="none" cx="0" cy="0" r="1.88"/><path fill="#none" stroke="#333334" stroke-width="0.4" stroke-linecap="round" d="M-1.2,0h2.4M0,-1.2v2.4"/></g><line class="cgfx__hitarea" style='stroke:#ff0000;fill:none;stroke-linecap:round;stroke-miterlimit:10;' opacity='0' display='none' x1="-5" y1="20" x2="-5" y2="15"/><line class="cgfx__hitarea" style='stroke:#ff0000;fill:none;stroke-linecap:round;stroke-miterlimit:10;' opacity='0' display='none' x1="5" y1="20" x2="5" y2="15"/><circle class="cgfx__hitarea" style='fill:#ff0000;' opacity='0' display='none' cx="0" cy="-0.01" r="17.5"/><g class="cgfx__incominglight cgfx__inspector cgfx__slider-brightness" transform="translate(0, -35) rotate(0)" display="none"><circle fill="#333333" cx="-42" cy="0" r="4.25"/><g transform="translate(45)"><circle fill="#f4f5f6" stroke="#333333" stroke-width="1.5" cx="0" cy="0" r="4.25"/><path fill="#333333" d="M0-6.054c-0.408,0-0.74-0.331-0.74-0.739v-2.865c0-0.408,0.332-0.74,0.74-0.74c0.408,0,0.74,0.331,0.74,0.74v2.865C0.74-6.386,0.408-6.054,0-6.054z"/><path fill="#333333" d="M0,10.398c-0.408,0-0.74-0.331-0.74-0.739V6.794c0-0.409,0.332-0.74,0.74-0.74c0.408,0,0.74,0.331,0.74,0.74v2.865C0.74,10.068,0.408,10.398,0,10.398z"/><path fill="#333333" d="M-4.804-4.064c-0.189,0-0.379-0.072-0.522-0.217l-2.026-2.026c-0.288-0.289-0.288-0.757,0-1.045c0.289-0.289,0.757-0.289,1.046,0l2.026,2.026c0.289,0.288,0.289,0.757,0,1.045C-4.425-4.136-4.614-4.064-4.804-4.064z"/><path fill="#333333" d="M6.83,7.57c-0.189,0-0.378-0.072-0.523-0.217L4.282,5.327c-0.289-0.289-0.289-0.757,0-1.045c0.288-0.289,0.757-0.289,1.045,0l2.026,2.026c0.288,0.288,0.288,0.757,0,1.045C7.209,7.497,7.019,7.57,6.83,7.57z"/><path fill="#333333" d="M-6.794,0.74h-2.865c-0.408,0-0.74-0.331-0.74-0.74s0.332-0.739,0.74-0.739h2.865c0.408,0,0.74,0.331,0.74,0.739S-6.385,0.74-6.794,0.74z"/><path fill="#333333" d="M9.659,0.74H6.795c-0.409,0-0.74-0.331-0.74-0.74s0.331-0.739,0.74-0.739h2.864c0.409,0,0.74,0.331,0.74,0.739S10.068,0.74,9.659,0.74z"/><path fill="#333333" d="M-6.83,7.57c-0.189,0-0.379-0.072-0.523-0.217c-0.288-0.289-0.288-0.757,0-1.045l2.026-2.026c0.288-0.289,0.757-0.289,1.045,0c0.289,0.289,0.289,0.757,0,1.045l-2.026,2.026C-6.452,7.497-6.641,7.57-6.83,7.57z"/><path fill="#333333" d="M4.804-4.065c-0.188,0-0.379-0.072-0.522-0.217c-0.289-0.288-0.289-0.757,0-1.045l2.025-2.025c0.289-0.289,0.757-0.289,1.046,0c0.288,0.288,0.288,0.757,0,1.045L5.327-4.282C5.183-4.137,4.994-4.065,4.804-4.065z"/></g><rect class="cgfx__bounds" fill="#f4f5f6" stroke="#333333" stroke-width="1.5" x="-30" y="-4" width="60" height="8" rx="4" ry="4"/><circle class="cgfx__knob" transform="" fill="#333333" cx="-26" cy="0" r="7.5"/><g class="cgfx__arrow" opacity="1" transform="translate(-11.25,0)"><line fill="none" stroke="#333333" stroke-linecap="round" stroke-miterlimit="10" x1="1.539" y1="0" x2="-1.539" y2="0"/><polyline fill="none" stroke="#333333" stroke-linecap="round" stroke-linejoin="round" stroke-miterlimit="10" points="1,-1 2,0 1,1"/></g><rect class="cgfx__hitarea-interaction cgfx__incominglight cgfx__inspector cgfx__bounds" style='fill:#ff0000;stroke:#ff0000;' opacity='0' display='none' stroke-width="1.5" x="-30" y="-4" width="60" height="8" rx="4" ry="4"/><circle class="cgfx__hitarea-interaction cgfx__incominglight cgfx__inspector cgfx__knob" style='fill:#ff0000;' opacity='0' display='none' cx="-26" cy="0" r="7.5"/></g><polygon class="cgfx__breakdown" transform="translate(0,0)rotate(0) scale(1.5,1.5)" display="none" style="opacity:0.7;fill:#FF0000;stroke:#F7E60B;stroke-miterlimit:10;" points="2.415,-5.161 7.901,-7.299 5.471,-2.294 11.953,-0.565 5.126,1.63 8.332,8.197 2.59,5.053 -0.137,10.527 -2.24,4.375 -7.565,7.957 -6.133,2.443 -11.953,0.87 -5.945,-1.796 -8.854,-7.513 -3.289,-5.371 -1.401,-10.527 "/></g><g class="cgfx__terminal"><desc class="cgfx__terminalname">Cathode</desc><desc class="cgfx__terminaltype">breadboard</desc><line class="cgfx__origin cgfx__direction cgfx__reference cgfx__debug" x1="-5" y1="0" x2="-5" y2="25" stroke-dasharray="10,2,3,2,3,2,3" style="stroke:rgb(255,0,0);stroke-width:2;opacity:0.5" display="none"/></g><g class="cgfx__terminal"><desc class="cgfx__terminalname">Anode</desc><desc class="cgfx__terminaltype">breadboard</desc><line class="cgfx__origin cgfx__direction cgfx__reference cgfx__debug" x1="5" y1="0" x2="5" y2="25" stroke-dasharray="10,2,3,2,3,2,3" style="stroke:rgb(255,0,0);stroke-width:2;opacity:0.5" display="none"/></g></svg>