<svg xmlns:xlink="http://www.w3.org/1999/xlink" xmlns="http://www.w3.org/2000/svg" class="cgfx__sensor-ir" viewBox="-11.73799991607666 -37.875 23.46500015258789 37.875"><g class="cgfx__wireview" display="inline"><path style='fill:none;stroke:#8C8C8C;stroke-width:2;stroke-linecap:round;stroke-miterlimit:10;' d="M9.99,0c0,0,0-1.99,0-2.86C9.99-5,6.5-5.01,6.5-7c0-0.97,0-6.21,0-6.21"/><path style='fill:none;stroke:#8C8C8C;stroke-width:2;stroke-linecap:round;stroke-miterlimit:10;' d="M-10.01,0c0,0,0-1.99,0-2.86c0-2.14,3.51-2.17,3.51-4.16c0-0.97,0-6.19,0-6.19"/><path style='fill:none;stroke:#8C8C8C;stroke-width:2;stroke-linecap:round;stroke-miterlimit:10;' d="M-0.01,0c0-11.43,0-16.68,0-20"/><path class="cgfx__selected" fill='none' stroke='#3b8ed7' stroke-width='2' stroke-miterlimit='10' stroke-linecap='round' stroke-linejoin='round' display='none' d="M9.99,0c0,0,0-1.99,0-2.86C9.99-5,6.5-5.01,6.5-7c0-0.97,0-6.21,0-6.21"/><path class="cgfx__selected" fill='none' stroke='#3b8ed7' stroke-width='2' stroke-miterlimit='10' stroke-linecap='round' stroke-linejoin='round' display='none' d="M-10.01,0c0,0,0-1.99,0-2.86c0-2.14,3.51-2.17,3.51-4.16c0-0.97,0-6.19,0-6.19"/><path class="cgfx__selected" fill='none' stroke='#3b8ed7' stroke-width='2' stroke-miterlimit='10' stroke-linecap='round' stroke-linejoin='round' display='none' d="M-0.01,0c0-11.43,0-16.68,0-20"/><polygon class="cgfx__selected" fill='none' stroke='#3b8ed7' stroke-linecap='round' stroke-linejoin='round' display='none' stroke-width='3' points="-11.727,-34.025 -11.727,-11.031 -10.898,-8.864 10.898,-8.864 11.727,-11.031 11.727,-34.025 9.898,-37.875 -9.898,-37.875"/><polygon style="fill:#333333;" points="-11.727,-34.025 -11.727,-11.031 -10.898,-8.864 10.898,-8.864 11.727,-11.031 11.727,-34.025 9.898,-37.875 -9.898,-37.875"/><rect x="-10.91" y="-32.875" style="fill:#282828;" width="21.785" height="24.011"/><polygon style="fill:#2D2D2D;" points="-11.738,-34.025 -10.91,-32.875 -10.91,-8.864 -11.738,-11.031"/><polygon style="fill:#2D2D2D;" points="10.875,-32.875 11.715,-34.025 11.715,-11.031 10.875,-8.864"/><ellipse style="fill:#1E1E1E;" cx="0" cy="-22.274" rx="6.512" ry="6.808"/><circle style="fill:#444444;" cx="0" cy="-22.774" r="6.808"/><path style="fill:#4F4F4F;" d="M0-29.582c-3.244,0-5.953,2.271-6.637,5.308c0.684,3.038,3.393,5.308,6.637,5.308s5.953-2.271,6.637-5.308C5.953-27.311,3.244-29.582,0-29.582z"/><path style="opacity:0.1;fill:#FFFFFF;" d="M0.528-27.091c-2.225-0.565-3.267,0.567-4.243,1.699c-0.25-0.624,0.435-1.612,1.31-2.091C-1.408-28.03,0.278-27.716,0.528-27.091z"/>    <path class="cgfx__hitarea" style='stroke:#ff0000;fill:none;stroke-width:2;stroke-linecap:round;stroke-miterlimit:10;' opacity='0' display='none' d="M9.99,0c0,0,0-1.99,0-2.86C9.99-5,6.5-5.01,6.5-7c0-0.97,0-6.21,0-6.21"/>    <path class="cgfx__hitarea" style='stroke:#ff0000;fill:none;stroke-width:2;stroke-linecap:round;stroke-miterlimit:10;' opacity='0' display='none' d="M-10.01,0c0,0,0-1.99,0-2.86c0-2.14,3.51-2.17,3.51-4.16c0-0.97,0-6.19,0-6.19"/>    <path class="cgfx__hitarea" style='stroke:#ff0000;fill:none;stroke-width:2;stroke-linecap:round;stroke-miterlimit:10;' opacity='0' display='none' d="M-0.01,0c0-11.43,0-16.68,0-20"/>    <polygon class="cgfx__hitarea" style='fill:#ff0000;' opacity='0' display='none' points="-11.727,-34.025 -11.727,-11.031 -10.898,-8.864 10.898,-8.864 11.727,-11.031 11.727,-34.025 9.898,-37.875 -9.898,-37.875"/><polygon class="cgfx__breakdown" transform="translate(0,-22)rotate(0) scale(1.2,1.2)" display="none" style="opacity:0.7;fill:#FF0000;stroke:#F7E60B;stroke-miterlimit:10;" points="2.415,-5.161 7.901,-7.299 5.471,-2.294 11.953,-0.565 5.126,1.63 8.332,8.197 2.59,5.053 -0.137,10.527 -2.24,4.375 -7.565,7.957 -6.133,2.443 -11.953,0.87 -5.945,-1.796 -8.854,-7.513 -3.289,-5.371 -1.401,-10.527 "/></g><g class="cgfx__topview" display="none"><polygon class="cgfx__breakdown" transform="translate(0,0)rotate(0) scale(1,1)" display="none" style="opacity:0.7;fill:#FF0000;stroke:#F7E60B;stroke-miterlimit:10;" points="2.415,-5.161 7.901,-7.299 5.471,-2.294 11.953,-0.565 5.126,1.63 8.332,8.197 2.59,5.053 -0.137,10.527 -2.24,4.375 -7.565,7.957 -6.133,2.443 -11.953,0.87 -5.945,-1.796 -8.854,-7.513 -3.289,-5.371 -1.401,-10.527 "/></g><g class="cgfx__terminal"><desc class="cgfx__terminalname">Power</desc><desc class="cgfx__terminaltype">breadboard</desc><line class="cgfx__origin cgfx__direction cgfx__reference cgfx__debug" x1="10" y1="0" x2="10" y2="25" stroke-dasharray="10,2,3,2,3,2,3" style="stroke:rgb(255,0,0);stroke-width:2;opacity:0.5" display="none"/></g><g class="cgfx__terminal"><desc class="cgfx__terminalname">GND</desc><desc class="cgfx__terminaltype">breadboard</desc><line class="cgfx__origin cgfx__direction cgfx__reference cgfx__debug" x1="0" y1="0" x2="0" y2="25" stroke-dasharray="10,2,3,2,3,2,3" style="stroke:rgb(255,0,0);stroke-width:2;opacity:0.5" display="none"/></g><g class="cgfx__terminal"><desc class="cgfx__terminalname">Out</desc><desc class="cgfx__terminaltype">breadboard</desc><line class="cgfx__origin cgfx__direction cgfx__reference cgfx__debug" x1="-10" y1="0" x2="-10" y2="25" stroke-dasharray="10,2,3,2,3,2,3" style="stroke:rgb(255,0,0);stroke-width:2;opacity:0.5" display="none"/></g></svg>