<svg xmlns:xlink="http://www.w3.org/1999/xlink" xmlns="http://www.w3.org/2000/svg" class="cgfx__lcd-16x2-blue-i2c" viewBox="-162.5 -71 320 142"><path class="cgfx__selected" display="none" fill='none' stroke='#3b8ed7' stroke-width='2' stroke-miterlimit='10' stroke-linecap='round' stroke-linejoin='round' d="m155.5-70.9h-311c-1.1 0-2 .9-2 2v137.8c0 1.1.9 2 2 2h311c1.1 0 2-.9 2-2v-137.8c0-1.1-.9-2-2-2zm-304 137.9c-2.8 0-5-2.2-5-5s2.2-5 5-5 5 2.2 5 5-2.2 5-5 5zm0-124c-2.8 0-5-2.2-5-5s2.2-5 5-5 5 2.2 5 5-2.2 5-5 5m297 124c-2.8 0-5-2.2-5-5s2.2-5 5-5 5 2.2 5 5-2.2 5-5 5zm0-124c-2.8 0-5-2.2-5-5s2.2-5 5-5 5 2.2 5 5-2.2 5-5 5z"/><path fill="#4ea36a" d="m155.5-70.9h-311c-1.1 0-2 .9-2 2v137.8c0 1.1.9 2 2 2h311c1.1 0 2-.9 2-2v-137.8c0-1.1-.9-2-2-2zm-304 137.9c-2.8 0-5-2.2-5-5s2.2-5 5-5 5 2.2 5 5-2.2 5-5 5zm0-124c-2.8 0-5-2.2-5-5s2.2-5 5-5 5 2.2 5 5-2.2 5-5 5m297 124c-2.8 0-5-2.2-5-5s2.2-5 5-5 5 2.2 5 5-2.2 5-5 5zm0-124c-2.8 0-5-2.2-5-5s2.2-5 5-5 5 2.2 5 5-2.2 5-5 5z"/><path class="cgfx__hitarea" style='fill:#ff0000;' opacity='0' display='none' d="m155.5-70.9h-311c-1.1 0-2 .9-2 2v137.8c0 1.1.9 2 2 2h311c1.1 0 2-.9 2-2v-137.8c0-1.1-.9-2-2-2zm-304 137.9c-2.8 0-5-2.2-5-5s2.2-5 5-5 5 2.2 5 5-2.2 5-5 5zm0-124c-2.8 0-5-2.2-5-5s2.2-5 5-5 5 2.2 5 5-2.2 5-5 5m297 124c-2.8 0-5-2.2-5-5s2.2-5 5-5 5 2.2 5 5-2.2 5-5 5zm0-124c-2.8 0-5-2.2-5-5s2.2-5 5-5 5 2.2 5 5-2.2 5-5 5z"/><g class="cgfx__matrixLCD cgfx__eg-matrix-lcd"><rect class="cgfx__orientation-north" display="inline" width="280.31" height="99.21" x="-140.155" y="-46.605" style='fill:#000;fill-opacity:0.2' rx="2" ry="2"/><rect class="cgfx__orientation-east" display="none" width="280.31" height="99.21" x="-137.155" y="-49.605" style='fill:#000;fill-opacity:0.2' rx="2" ry="2"/><rect class="cgfx__orientation-south" display="none" width="280.31" height="99.21" x="-140.155" y="-52.605" style='fill:#000;fill-opacity:0.2' rx="2" ry="2"/><rect class="cgfx__orientation-west" display="none" width="280.31" height="99.21" x="-143.155" y="-49.605" style='fill:#000;fill-opacity:0.2' rx="2" ry="2"/><rect width="280.31" height="99.21" x="-140.155" y="-49.605" style="fill:#333333" rx="2" ry="2"/><rect width="260" height="63" x="-130" y="-31.5" fill="#1a2640" rx="2" ry="2"/><rect class="cgfx__backlight" width="260" height="63" x="-130" y="-31.5" fill="#426abd" fill-opacity="0.8" rx="2" ry="2"/><g class="cgfx__dots"></g></g><polygon class="cgfx__breakdown" transform="translate(0,0)rotate(0) scale(3.5,3.5)" display="none" style="opacity:0.7;fill:#FF0000;stroke:#F7E60B;stroke-miterlimit:10;" points="2.415,-5.161 7.901,-7.299 5.471,-2.294 11.953,-0.565 5.126,1.63 8.332,8.197 2.59,5.053 -0.137,10.527 -2.24,4.375 -7.565,7.957 -6.133,2.443 -11.953,0.87 -5.945,-1.796 -8.854,-7.513 -3.289,-5.371 -1.401,-10.527 "/></svg>